<svg 
  width="48" 
  height="48" 
  viewBox="0 0 48 48" 
  fill="none" 
  xmlns="http://www.w3.org/2000/svg"
>
  <rect width="48" height="48" rx="8" fill="#E2725B" />
  <path 
    d="M34 16H29V18H34V16Z" 
    fill="white"
  />
  <path 
    d="M34 29.5C34 30.88 32.88 32 31.5 32C30.12 32 29 30.88 29 29.5C29 28.12 30.12 27 31.5 27C32.88 27 34 28.12 34 29.5Z" 
    fill="white"
  />
  <path 
    d="M20 29.5C20 30.88 18.88 32 17.5 32C16.12 32 15 30.88 15 29.5C15 28.12 16.12 27 17.5 27C18.88 27 20 28.12 20 29.5Z" 
    fill="white"
  />
  <path 
    d="M33.89 18H29L27 27H15.35C14.53 27 14 26.31 14 25.5C14 24.69 14.59 24 15.4 24H25.5L27.5 18H14V16H29L31 24H33.89C34.88 24 35.58 25.13 35.35 26.08L35.12 27H33.12L33.35 26.08C33.44 25.76 33.24 25.5 33 25.5H30.89L28.89 16H34V18H33.89Z" 
    fill="white"
  />
</svg>